[img]http://img101.imageshack.us/img101/9176/posterlh.jpg[/img]
[CODE]

File:: Mars.Needs.Moms.2011.TS.XViD-T0XiCiNK

Video Source:: Own
Audio Source:: IMAGiNE thx
Language::English
IMDB:: http://www.imdb.com/title/tt1305591/

A young boy named Milo gains a deeper appreciation for his 
mom after Martians come to Earth to take her away.

Specs::

General

Format                           : AVI
Format/Info                      : Audio Video Interleave
File size                        : 1.36 GiB
Duration                         : 1h 20mn
Overall bit rate                 : 2 400 Kbps
Writing application              : VirtualDubMod 1.5.10.2 (build 2540/release)
Writing library                  : VirtualDubMod build 2540/release

Video
ID                               : 0
Format                           : MPEG-4 Visual
Format profile                   : Advanced Simple@L5
Format settings, BVOP            : Yes
Format settings, QPel            : No
Format settings, GMC             : No warppoints
Format settings, Matrix          : Default (MPEG)
Codec ID                         : XVID
Codec ID/Hint                    : XviD
Duration                         : 1h 20mn
Bit rate                         : 2 132 Kbps
Width                            : 720 pixels
Height                           : 336 pixels
Display aspect ratio             : 2.2:1
Frame rate                       : 29.970 fps
Color space                      : YUV
Chroma subsampling               : 4:2:0
Bit depth                        : 8 bits
Scan type                        : Progressive
Bits/(Pixel*Frame)               : 0.294
Stream size                      : 1.20 GiB (89%)
Writing library                  : XviD 1.2.0.dev47 (UTC 2006-11-01)

Audio
ID                               : 1
Format                           : MPEG Audio
Format version                   : Version 1
Format profile                   : Layer 3
Codec ID                         : 55
Codec ID/Hint                    : MP3
Duration                         : 1h 20mn
Bit rate mode                    : Constant
Bit rate                         : 256 Kbps
Channel(s)                       : 2 channels
Sampling rate                    : 44.1 KHz
Stream size                      : 148 MiB (11%)
Alignment                        : Split accross interleaves
Interleave, duration             : 33 ms (1.00 video frame)
Interleave, preload duration     : 500 ms

NOTES:: Presenting a better quality Mars Needs Moms. Special thanks to IMAGiNE for the audio and 
HEHE for the hook up. Also, the CAM takes a sec to steady out, we didn't wan't to crop anymore then 
we had to.
Enjoy.
[/CODE]
Screens:
[img]http://img156.imageshack.us/img156/1601/71008208.png[/img]
[img]http://img845.imageshack.us/img845/5159/42015676.png[/img]
[img]http://img829.imageshack.us/img829/6020/13452566.png[/img]
